<?xml version="1.0" encoding="utf-8"?>
<!-- Generator: Adobe Illustrator 26.3.1, SVG Export Plug-In . SVG Version: 6.00 Build 0)  -->
<svg version="1.1" id="Layer_1" xmlns="http://www.w3.org/2000/svg" xmlns:xlink="http://www.w3.org/1999/xlink" x="0px" y="0px"
	 viewBox="0 0 1472 466" style="enable-background:new 0 0 1472 466;" xml:space="preserve">
<style type="text/css">
	.st0{fill:#FFFFFF;}
</style>
<path class="st0" d="M151.2,183.3H42.4v-70.1h96.1v-23H42.4v-64h105.7V3.5H13.7v202.5h137.5L151.2,183.3L151.2,183.3z M274.7,206.1
	l61-202.5h-29.3l-56.7,199.8h-0.6L192.7,3.5h-30.9l60.8,202.5H274.7L274.7,206.1z M435.6,0.8c-56.7,0-90.1,38.6-90.1,104
	c0,65.4,33.4,104,90.1,104c56.7,0,89.8-38.6,89.8-104C525.5,39.4,492,0.8,435.6,0.8z M435.6,185.2c-38.3,0-60.8-29.8-60.8-80.5
	s22.5-80.5,60.8-80.5c38.4,0,60.2,29.8,60.2,80.5S473.4,185.2,435.6,185.2z M587,3.5h-28.8v202.5h120.5v-23.5H587V3.5z M845.8,3.5
	h-27.1v133.8c0,30.1-18.1,47.9-48.2,47.9c-30.1,0-48.2-17.8-48.2-47.9V3.5h-28.5v132.2c0,45.7,28.2,73.1,75.9,73.1
	c47.7,0,76.1-27.4,76.1-73.1V3.5z M929.3,206.1H958V26.2h61.3V3.5H867.9v22.7h61.3L929.3,206.1L929.3,206.1z M1072.2,3.5h-28.8
	v202.5h28.8V3.5z M1195.2,0.8c-56.7,0-90.1,38.6-90.1,104c0,65.4,33.4,104,90.1,104c56.7,0,89.8-38.6,89.8-104
	C1285,39.4,1251.6,0.8,1195.2,0.8L1195.2,0.8z M1195.2,185.2c-38.3,0-60.8-29.8-60.8-80.5s22.5-80.5,60.8-80.5
	c38.4,0,60.2,29.8,60.2,80.5S1232.9,185.2,1195.2,185.2z M1444.9,3.5l0.8,199.8h-0.5l-78-199.8h-49.3v202.5h27.7l-1.1-199.8h0.6
	l78.1,199.8h49V3.5H1444.9L1444.9,3.5z M86.5,346.2c-27.1-4.1-51.7-7.9-51.7-31.8c0-21.1,16.4-33.1,44.4-33.1
	c27.9,0,45.7,17,47.4,46h28.2c-3-43.5-30.7-69.5-74.5-69.5c-46.8,0-74.5,20.8-74.5,58.6c0,42.7,37,48.4,70.1,53.6
	c28.5,4.4,55.3,8.5,55.3,36.4c0,22.7-18.6,35.9-50.4,35.9c-31.8,0-50.1-18.3-52.3-49.3H0c3.3,46,33.1,72.8,80.2,72.8
	c50.4,0,80.2-23,80.2-61.9C160.5,357.7,121.1,351.7,86.5,346.2L86.5,346.2z M318.2,260.5H166.8v22.7h61.3V463h28.8V283.2h61.3V260.5
	z M370.8,260.5L303.4,463h29.3l15.9-50.9h92.8l15.9,50.9h30.9l-66.8-202.5H370.8L370.8,260.5z M355.7,389.2l39.2-125.9h0.6
	l38.9,125.9H355.7z M595.8,348.9H592v-0.6c34.2,0,54.5-15.6,54.5-41.9c0-29-20.5-46-55.6-46h-80.5V463h82.4c43.5,0,69-21.6,69-58.3
	S637.5,348.9,595.8,348.9L595.8,348.9z M539.1,283.2h42.4c22.2,0,35.3,12.3,35.3,32.8c0,20.5-13.2,32.3-35.3,32.3h-42.4V283.2z
	 M594.2,440.3h-55v-70.6h55c23.8,0,38.1,13.1,38.1,35S618,440.3,594.2,440.3z M721.2,260.5h-28.7V463H813v-23.5h-91.7L721.2,260.5
	L721.2,260.5z M866.1,370.3h96.1v-23h-96.1v-64h105.7v-22.7H837.3V463h137.5v-22.7H866.1V370.3z M1077.7,346.2
	c-27.1-4.1-51.8-7.9-51.8-31.8c0-21.1,16.4-33.1,44.4-33.1c27.9,0,45.7,17,47.4,46h28.2c-3-43.5-30.7-69.5-74.5-69.5
	c-46.8,0-74.5,20.8-74.5,58.6c0,42.7,37,48.4,70.1,53.6c28.5,4.4,55.3,8.5,55.3,36.4c0,22.7-18.6,35.9-50.4,35.9
	c-31.8,0-50.1-18.3-52.3-49.3h-28.5c3.3,46,33.1,72.8,80.2,72.8c50.4,0,80.2-23,80.2-61.9C1151.7,357.7,1112.2,351.7,1077.7,346.2
	L1077.7,346.2z"/>
</svg>
