<?xml version="1.0" encoding="UTF-8"?><svg id="Layer_1" xmlns="http://www.w3.org/2000/svg" viewBox="0 0 1472.02 465.04"><path d="M151.17,182.55H42.45V112.49h96.12v-22.99H42.45V25.45h105.71V2.72H13.68V205.26H151.14v-22.71h.02Zm123.49,22.71L335.7,2.72h-29.29l-56.69,199.79h-.55L192.75,2.72h-30.93l60.78,202.54h52.06ZM435.63,0c-56.68,0-90.1,38.6-90.1,103.99s33.41,103.99,90.1,103.99,89.83-38.6,89.83-103.99S492.05,0,435.63,0Zm0,184.45c-38.35,0-60.8-29.83-60.8-80.46s22.45-80.47,60.8-80.47,60.25,29.83,60.25,80.47-22.45,80.46-60.25,80.46ZM587.04,2.72h-28.76V205.26h120.5v-23.55h-91.74V2.72Zm258.76,0h-27.1V136.57c0,30.1-18.07,47.89-48.2,47.89s-48.2-17.79-48.2-47.89V2.72h-28.48V134.93c0,45.72,28.21,73.07,75.86,73.07s76.13-27.35,76.13-73.07V2.72Zm83.5,202.54h28.74V25.45h61.34V2.72h-151.43V25.45h61.33V205.26h.02ZM1072.22,2.72h-28.76V205.26h28.76V2.72Zm122.93-2.72c-56.68,0-90.09,38.6-90.09,103.99s33.41,103.99,90.09,103.99,89.81-38.6,89.81-103.99S1251.57,0,1195.18,0h-.03Zm0,184.45c-38.35,0-60.8-29.83-60.8-80.46s22.45-80.47,60.8-80.47,60.25,29.83,60.25,80.47-22.45,80.46-60.25,80.46ZM1444.88,2.72l.81,199.79h-.55L1367.11,2.72h-49.29V205.26h27.66l-1.09-199.79h.56l78.05,199.79h49.02V2.72h-27.14ZM86.53,345.41c-27.1-4.12-51.75-7.94-51.75-31.76,0-21.07,16.43-33.11,44.35-33.11s45.75,16.97,47.38,45.99h28.21c-3.01-43.51-30.67-69.51-74.49-69.51-46.83,0-74.49,20.8-74.49,58.58,0,42.69,36.98,48.44,70.1,53.64,28.48,4.38,55.31,8.48,55.31,36.4,0,22.7-18.62,35.85-50.4,35.85s-50.11-18.35-52.3-49.26H0c3.28,45.99,33.12,72.81,80.24,72.81,50.4,0,80.24-22.99,80.24-61.85,0-46.25-39.44-52.27-73.93-57.74l-.02-.05Zm231.65-85.67H166.75v22.71h61.33v179.81h28.76v-179.81h61.33v-22.71Zm52.57,0l-67.36,202.51h29.29l15.88-50.9h92.82l15.88,50.9h30.93l-66.8-202.51h-50.64Zm-15.06,128.62l39.17-125.9h.55l38.88,125.9h-78.61Zm240.13-40.23h-3.83v-.55c34.23,0,54.49-15.6,54.49-41.87,0-29.01-20.55-45.99-55.6-45.99h-80.51v202.51h82.44c43.53,0,69.02-21.62,69.02-58.29s-24.38-55.83-66.01-55.83v.02Zm-56.68-65.68h42.45c22.16,0,35.32,12.33,35.32,32.84s-13.15,32.29-35.32,32.29h-42.45v-65.13Zm55.05,157.1h-55.05v-70.62h55.05c23.83,0,38.06,13.15,38.06,35.03s-14.24,35.58-38.06,35.58Zm127.03-179.81h-28.74v202.51h120.5v-23.52h-91.74v-178.99h-.02Zm144.83,109.74h96.12v-22.99h-96.12v-64.04h105.71v-22.71h-134.45v202.51h137.46v-22.71h-108.72v-70.06Zm211.66-24.08c-27.1-4.12-51.75-7.94-51.75-31.76,0-21.07,16.43-33.11,44.36-33.11s45.74,16.97,47.38,45.99h28.21c-3.01-43.51-30.67-69.51-74.49-69.51-46.83,0-74.48,20.8-74.48,58.58,0,42.69,36.97,48.44,70.1,53.64,28.47,4.38,55.31,8.48,55.31,36.4,0,22.7-18.62,35.85-50.4,35.85s-50.1-18.35-52.3-49.26h-28.47c3.28,45.99,33.12,72.81,80.24,72.81,50.38,0,80.25-22.99,80.25-61.85,0-46.25-39.44-52.27-73.94-57.74l-.02-.05Z"/></svg>