<svg width="32" height="32" viewBox="0 0 32 32" fill="none" xmlns="http://www.w3.org/2000/svg">
<rect width="32" height="32" fill="white"/>
<g clip-path="url(#clip0_436_6)">
<path d="M25.3494 6.48914C24.7675 5.88644 24.1321 5.3342 23.4552 4.84134C23.1969 4.65133 22.9119 4.46131 22.5912 4.25942C20.2279 2.78085 17.4994 2 14.6996 2C6.59417 2 0 8.47838 0 16.4413C0 22.3169 3.57469 27.5632 9.10893 29.7988C9.10893 29.7988 9.54537 29.974 9.81258 30.0304L14.0137 22.7534L19.8924 27.8868L32 6.48914H25.3494ZM23.087 15.1587L19.0284 22.3318L15.5576 19.5706L17.2559 16.5185L17.9774 16.851C17.3093 15.9306 16.579 14.0245 16.573 12.8992L9.06142 25.9094C5.63221 23.9647 3.48859 20.3901 3.48859 16.4383C3.48562 10.4023 8.51512 5.48562 14.6996 5.48562C16.8462 5.48562 18.9334 6.08239 20.7385 7.21358C20.9909 7.37094 21.2076 7.51642 21.4006 7.65893C22.0865 8.15773 22.7129 8.73669 23.2652 9.37502L23.7877 9.97773H28.0215L24.4201 12.8131L23.09 15.1646V15.1587H23.087Z" fill="black"/>
</g>
<defs>
<clipPath id="clip0_436_6">
<rect width="32" height="28.0304" fill="white" transform="translate(0 2)"/>
</clipPath>
</defs>
</svg>
