<svg width="256" height="256" viewBox="0 0 256 256" fill="none" xmlns="http://www.w3.org/2000/svg">
<rect width="256" height="256" fill="white"/>
<path d="M188.771 66.1478C184.989 62.2344 180.859 58.6488 176.459 55.4487C174.78 54.2149 172.927 52.9811 170.843 51.6703C155.481 42.07 137.746 37 119.547 37C66.8621 37 24 79.0638 24 130.766C24 168.917 47.2355 202.98 83.208 217.496C83.208 217.496 86.0449 218.634 87.7818 219L115.089 171.751L153.3 205.082L232 66.1478H188.771ZM174.066 122.438L147.685 169.013L125.125 151.085L136.163 131.268L140.853 133.427C136.511 127.451 131.763 115.074 131.725 107.768L82.8992 192.243C60.6094 179.616 46.6758 156.406 46.6758 130.747C46.6565 91.5557 79.3483 59.6319 119.547 59.6319C133.5 59.6319 147.067 63.5067 158.801 70.8515C160.441 71.8732 161.85 72.8178 163.104 73.7431C167.562 76.9818 171.634 80.7409 175.224 84.8856L178.62 88.799H206.14L182.731 107.209L174.085 122.477V122.438H174.066Z" fill="black"/>
</svg>
