<?xml version="1.0" encoding="UTF-8"?><svg id="Layer_1" xmlns="http://www.w3.org/2000/svg" viewBox="0 0 107.78 94.41"><path d="M85.38,15.12c-1.96-2.03-4.1-3.89-6.38-5.55h0c-.87-.64-1.83-1.28-2.91-1.96h0C68.13,2.63,58.94,0,49.51,0,22.21,0,0,21.82,0,48.64c0,19.79,12.04,37.46,30.68,44.99,0,0,1.47,.59,2.37,.78l14.15-24.51,19.8,17.29L107.78,15.12h-22.4Zm-7.62,29.2l-13.67,24.16-11.69-9.3,5.72-10.28,2.43,1.12c-2.25-3.1-4.71-9.52-4.73-13.31l-25.3,43.82c-11.55-6.55-18.77-18.59-18.77-31.9-.01-20.33,16.93-36.89,37.76-36.89,7.23,0,14.26,2.01,20.34,5.82,.85,.53,1.58,1.02,2.23,1.5h0c2.31,1.68,4.42,3.63,6.28,5.78l1.76,2.03h14.26l-12.13,9.55-4.48,7.92v-.02Z"/></svg>