<svg width="726" height="95" viewBox="0 0 726 95" fill="none" xmlns="http://www.w3.org/2000/svg">
<path d="M0.52 93V2.12H33.032C49.416 2.12 61.064 10.568 61.064 25.544C61.064 33.992 56.968 41.288 50.056 45V45.256C60.04 48.2 64.776 57.416 64.776 66.632C64.776 84.808 50.184 93 33.416 93H0.52ZM17.032 39.24H33.032C40.2 39.24 44.296 34.12 44.296 27.592C44.296 21.064 40.456 16.328 32.776 16.328H17.032V39.24ZM17.032 78.792H34.696C43.144 78.792 47.88 73.288 47.88 65.608C47.88 58.056 43.016 52.552 34.696 52.552H17.032V78.792ZM82.645 93V2.12H137.045V16.328H99.157V40.136H129.749V54.344H99.157V78.792H139.093V93H82.645ZM206.211 93V16.328H176.387V2.12H252.547V16.328H222.723V93H206.211ZM264.52 93V2.12H281.032V40.648H322.632V2.12H339.144V93H322.632V54.856H281.032V93H264.52ZM362.145 93V2.12H416.545V16.328H378.657V40.136H409.249V54.344H378.657V78.792H418.593V93H362.145ZM460.623 46.92C460.623 20.936 480.847 0.583992 507.599 0.583992C534.351 0.583992 554.575 20.936 554.575 46.92C554.575 73.672 534.351 94.536 507.599 94.536C480.847 94.536 460.623 73.672 460.623 46.92ZM477.647 46.92C477.647 65.608 490.959 79.432 507.599 79.432C524.239 79.432 537.551 65.608 537.551 46.92C537.551 29 524.239 15.688 507.599 15.688C490.959 15.688 477.647 29 477.647 46.92ZM571.395 93V2.12H587.907L622.339 54.6C625.795 59.848 629.891 68.68 629.891 68.68H630.147C630.147 68.68 629.251 59.976 629.251 54.6V2.12H645.635V93H629.251L594.819 40.648C591.363 35.4 587.267 26.568 587.267 26.568H587.011C587.011 26.568 587.907 35.272 587.907 40.648V93H571.395ZM668.645 93V2.12H723.045V16.328H685.157V40.136H715.749V54.344H685.157V78.792H725.093V93H668.645Z" fill="black"/>
</svg>
