<svg width="722" height="57" viewBox="0 0 722 57" fill="none" xmlns="http://www.w3.org/2000/svg">
<path d="M0.93 56V1.33H10.863V56H0.93ZM24.6917 56V1.33H34.6247L55.3377 32.9C57.4167 36.057 59.8807 41.37 59.8807 41.37H60.0347C60.0347 41.37 59.4957 36.134 59.4957 32.9V1.33H69.3517V56H59.4957L38.7827 24.507C36.7037 21.35 34.2397 16.037 34.2397 16.037H34.0857C34.0857 16.037 34.6247 21.273 34.6247 24.507V56H24.6917ZM96.1297 56L76.1867 1.33H86.8897L98.9017 36.981C99.9797 40.138 100.904 44.989 100.981 44.989H101.135C101.212 44.989 102.136 40.138 103.214 36.981L115.303 1.33H125.929L105.986 56H96.1297ZM132.747 56V1.33H165.472V9.877H142.68V24.199H161.083V32.746H142.68V47.453H166.704V56H132.747ZM172.879 49.455L178.269 41.986C178.269 41.986 184.198 47.761 191.898 47.761C196.056 47.761 199.829 45.605 199.829 41.139C199.829 31.36 174.034 33.054 174.034 16.268C174.034 7.182 181.888 0.405995 192.36 0.405995C203.14 0.405995 208.684 6.258 208.684 6.258L204.372 14.343C204.372 14.343 199.136 9.569 192.283 9.569C187.663 9.569 184.044 12.264 184.044 16.114C184.044 25.816 209.762 23.429 209.762 40.908C209.762 49.609 203.14 56.924 191.744 56.924C179.578 56.924 172.879 49.455 172.879 49.455ZM230.992 56V9.877H213.051V1.33H258.866V9.877H240.925V56H230.992ZM284.792 56V1.33H294.725V47.453H318.364V56H284.792ZM326.3 56V1.33H336.233V56H326.3ZM350.062 56V1.33H359.995V23.583H367.079L379.938 1.33H390.718L375.241 27.356V27.51L391.642 56H380.477L367.079 32.13H359.995V56H350.062ZM399.916 56V1.33H432.641V9.877H409.849V24.199H428.252V32.746H409.849V47.453H433.873V56H399.916ZM474.249 56V9.877H456.308V1.33H502.123V9.877H484.182V56H474.249ZM509.326 56V1.33H519.259V24.507H544.284V1.33H554.217V56H544.284V33.054H519.259V56H509.326ZM568.053 56V1.33H600.778V9.877H577.986V24.199H596.389V32.746H577.986V47.453H602.01V56H568.053ZM628.295 56V47.453H640.153V17.115C640.153 15.267 640.23 13.419 640.23 13.419H640.076C640.076 13.419 639.46 14.728 637.689 16.499L633.3 20.657L627.448 14.497L641.154 1.33H649.855V47.453H661.713V56H628.295ZM679.016 24.738C672.086 24.738 666.465 19.348 666.465 12.572C666.465 5.95 672.086 0.405995 679.016 0.405995C685.946 0.405995 691.644 5.95 691.644 12.572C691.644 19.348 685.946 24.738 679.016 24.738ZM668.39 56L710.355 1.33H719.364L677.399 56H668.39ZM679.016 17.654C681.865 17.654 684.175 15.421 684.175 12.572C684.175 9.8 681.865 7.49 679.016 7.49C676.167 7.49 673.934 9.8 673.934 12.572C673.934 15.421 676.167 17.654 679.016 17.654ZM696.341 44.835C696.341 38.213 701.885 32.669 708.892 32.669C715.822 32.669 721.443 38.213 721.443 44.835C721.443 51.534 715.822 56.924 708.892 56.924C701.885 56.924 696.341 51.534 696.341 44.835ZM703.81 44.758C703.81 47.607 706.043 49.84 708.892 49.84C711.741 49.84 714.051 47.607 714.051 44.758C714.051 41.986 711.741 39.676 708.892 39.676C706.043 39.676 703.81 41.986 703.81 44.758Z" fill="black"/>
</svg>
